<?xml version="1.0" standalone="no"?>
<!DOCTYPE svg PUBLIC "-//W3C//DTD SVG 20010904//EN"
 "http://www.w3.org/TR/2001/REC-SVG-20010904/DTD/svg10.dtd">
<svg version="1.0" xmlns="http://www.w3.org/2000/svg"
 width="593.000000pt" height="421.000000pt" viewBox="0 0 593.000000 421.000000"
 preserveAspectRatio="xMidYMid meet">

<g transform="translate(0.000000,421.000000) scale(0.100000,-0.100000)"
fill="#000000" stroke="none">
<path d="M3065 3675 c-16 -8 -59 -21 -95 -30 -36 -9 -72 -22 -80 -28 -22 -18
-80 -103 -80 -119 0 -32 -22 -38 -63 -17 -45 24 -84 26 -146 10 -48 -13 -105
-40 -98 -47 2 -2 23 3 47 11 24 8 45 13 47 11 2 -2 -10 -8 -26 -14 -17 -6 -43
-23 -57 -37 -22 -22 -34 -26 -70 -23 -24 2 -44 0 -44 -4 0 -5 24 -8 53 -8 29
0 58 -5 64 -11 7 -7 22 -12 35 -13 22 -1 23 -4 19 -69 l-3 -68 28 7 c51 12 78
25 101 45 12 12 31 19 44 17 32 -4 37 -35 7 -47 -47 -19 -63 -24 -71 -22 -11
2 -6 -71 7 -87 7 -10 6 -16 -5 -23 -12 -8 -11 -12 5 -24 18 -14 22 -13 43 7
14 13 19 24 14 26 -16 5 -13 22 4 22 17 0 18 -17 9 -109 -8 -71 -25 -78 -55
-22 -10 18 -26 43 -37 55 -11 11 -22 28 -25 36 -4 11 -7 9 -12 -7 -4 -13 -11
-20 -16 -17 -5 3 -9 -1 -10 -8 0 -7 -4 -4 -9 7 -7 17 -9 15 -9 -11 -1 -18 11
-57 25 -88 31 -67 43 -136 24 -136 -13 0 -56 50 -53 61 1 3 -12 19 -29 35
l-31 29 24 -44 c13 -24 47 -63 74 -87 29 -24 51 -51 51 -63 0 -18 -2 -18 -29
-5 -41 22 -104 88 -138 146 -43 72 -103 260 -86 270 21 13 29 9 65 -29 19 -21
30 -29 24 -18 -9 16 -5 22 19 37 18 11 29 26 29 41 l0 22 -97 -10 c-54 -6
-114 -19 -133 -29 -19 -9 -55 -24 -80 -33 -24 -8 -49 -21 -55 -29 -25 -33 -60
-34 -121 -4 -33 16 -78 40 -100 54 -41 25 -42 25 -64 8 l-23 -18 44 -32 c24
-18 85 -53 136 -78 86 -43 123 -74 71 -59 -41 12 -182 82 -228 113 -41 29 -60
32 -60 12 0 -13 134 -95 215 -131 76 -33 99 -56 45 -45 -38 7 -177 76 -237
117 -33 23 -48 28 -56 20 -6 -6 -28 -11 -50 -11 -21 0 -48 -5 -60 -11 -39 -20
-159 -151 -168 -183 -5 -17 -9 -65 -9 -106 -1 -86 -9 -105 -68 -155 -23 -21
-50 -51 -59 -68 -8 -17 -37 -59 -63 -93 -70 -92 -90 -219 -53 -335 20 -63 103
-153 173 -189 66 -35 223 -41 298 -11 52 21 52 21 52 1 0 -11 -6 -19 -12 -18
-8 2 -12 -6 -11 -19 2 -13 -2 -22 -9 -20 -6 1 -15 -13 -20 -31 -5 -18 -13 -30
-18 -27 -6 3 -7 -1 -4 -9 3 -9 2 -16 -4 -16 -5 0 -12 -15 -14 -34 -4 -38 12
-40 30 -3 30 64 52 129 47 137 -3 6 -1 10 5 10 5 0 19 15 31 33 l20 32 -7 -29
c-4 -16 -12 -40 -19 -53 -17 -32 -14 -88 5 -89 8 0 21 5 29 10 12 9 13 7 7 -9
-7 -18 -6 -18 13 2 12 12 21 27 21 34 0 7 9 9 28 4 15 -5 43 -9 63 -10 47 -3
80 -14 100 -32 15 -12 17 -9 23 27 5 35 1 51 -26 101 -30 58 -47 149 -27 149
5 0 9 7 9 15 0 13 3 13 20 3 11 -7 20 -17 20 -21 0 -5 8 -16 17 -25 15 -16 16
-15 10 16 -4 18 -18 48 -32 66 -24 32 -26 66 -3 66 6 0 8 13 4 33 -4 23 -3 28
4 17 9 -14 11 -2 12 70 1 3 -2 18 -6 33 -4 19 -3 26 3 22 7 -4 9 6 6 27 -4 24
-3 28 3 13 8 -18 9 -17 14 7 3 15 1 25 -3 22 -8 -5 -5 45 6 119 3 15 1 26 -3
23 -4 -2 -6 28 -4 67 2 51 11 88 29 125 31 66 26 100 -18 109 -39 8 -35 20 47
160 10 18 24 33 29 33 6 0 22 -21 37 -48 15 -26 41 -60 58 -75 18 -17 29 -35
26 -43 -11 -28 17 -128 41 -152 l25 -23 -4 38 c-5 66 23 46 69 -47 24 -47 43
-80 43 -73 0 7 7 10 15 7 10 -4 15 0 16 12 1 11 5 6 11 -13 11 -33 23 -39 123
-70 l30 -9 -5 -104 c-3 -58 -5 -186 -5 -285 1 -172 2 -184 30 -270 26 -77 30
-105 30 -195 -1 -134 -12 -215 -33 -238 -9 -10 -13 -12 -8 -5 13 20 1 26 -31
17 -40 -11 -95 -8 -203 10 -51 9 -96 14 -99 10 -6 -6 -1 -10 73 -69 47 -37 63
-52 99 -91 l28 -31 -26 -49 c-41 -78 -69 -100 -160 -131 l-40 -13 40 5 c49 7
145 54 153 75 3 8 16 29 29 46 13 17 23 36 23 42 0 16 8 15 26 -2 30 -30 -61
-154 -149 -204 -72 -41 -148 -128 -196 -226 -52 -104 -71 -181 -71 -281 0 -72
19 -295 26 -303 1 -2 17 1 36 8 28 10 57 7 203 -24 267 -56 310 -70 370 -126
17 -15 54 -35 82 -46 36 -12 62 -30 83 -56 l31 -38 671 0 c497 0 669 3 661 11
-6 6 -9 19 -6 28 4 13 3 13 -5 2 -11 -16 -47 -7 -37 9 3 5 -1 10 -10 10 -9 0
-13 -4 -10 -10 3 -5 0 -10 -7 -10 -7 0 -23 16 -36 36 -23 35 -48 38 -37 4 10
-32 -35 -38 -59 -8 -20 24 -137 97 -318 199 -236 133 -578 360 -634 420 -35
38 -95 162 -85 175 3 5 74 54 156 108 155 103 191 136 425 384 128 136 158
152 171 93 4 -18 12 -37 18 -40 6 -4 20 -42 31 -85 22 -81 79 -205 133 -286
18 -26 49 -74 69 -106 21 -33 52 -77 68 -99 67 -88 108 -156 103 -173 -6 -24
41 -130 73 -163 l26 -27 -23 -61 c-12 -34 -19 -64 -15 -68 3 -3 9 8 12 25 7
35 10 37 51 21 l28 -10 -23 23 c-27 30 -28 48 -2 48 18 0 60 -35 60 -51 0 -7
55 -29 72 -29 5 0 6 5 3 10 -3 6 -14 10 -25 10 -13 0 -17 5 -13 20 7 28 21 34
66 31 35 -2 37 0 28 18 -7 12 -8 28 -2 43 17 44 111 114 119 89 5 -16 22 -14
22 3 0 7 7 19 15 26 20 16 20 44 0 36 -24 -9 -82 62 -100 121 -12 41 -20 53
-35 53 -11 0 -20 2 -20 4 0 28 -26 121 -49 174 -99 229 -215 514 -251 617 -71
204 -152 331 -252 396 -33 21 -77 41 -97 45 -20 4 -41 10 -47 15 -16 13 -47
-26 -94 -118 -63 -126 -81 -131 -102 -30 -11 53 -11 58 11 81 13 13 20 29 16
35 -11 18 -23 12 -33 -17 -8 -23 -34 -41 -138 -95 -171 -89 -167 -88 -162 -44
4 41 -2 39 -46 -12 -52 -61 -103 -111 -114 -111 -15 0 -22 39 -12 66 11 28 3
32 -15 7 -7 -9 -21 -18 -32 -19 -16 -3 -19 1 -15 27 3 18 -4 50 -16 77 -11 26
-30 81 -42 122 -12 41 -30 98 -40 125 -10 28 -21 64 -25 80 -3 17 -19 62 -34
100 -15 39 -31 84 -35 100 l-6 30 15 -25 c12 -22 20 -21 16 2 -2 19 28 -7 44
-36 20 -36 14 -85 -6 -56 -8 11 -9 9 -4 -10 4 -14 11 -29 16 -34 4 -5 6 0 3
11 -4 15 0 19 20 19 14 0 26 -4 26 -9 0 -12 -27 -37 -40 -37 -6 0 -10 -6 -8
-12 3 -7 21 -13 40 -13 l35 -1 -12 51 c-6 28 -15 57 -19 63 -4 7 -9 36 -11 65
-4 49 -3 51 9 23 9 -21 14 -24 19 -13 3 8 22 17 41 19 24 3 33 1 26 -6 -16
-16 -12 -30 5 -16 12 10 16 9 21 -3 3 -9 3 -21 -1 -27 -3 -5 -2 -10 4 -10 16
0 41 -30 41 -51 0 -12 -7 -19 -20 -19 -21 0 -27 -15 -10 -25 6 -4 17 -1 25 5
8 7 24 10 36 7 15 -4 19 -2 15 9 -3 9 1 14 14 14 11 0 20 5 20 10 0 6 8 10 18
10 10 0 13 -3 6 -8 -8 -5 -6 -16 6 -35 10 -16 20 -24 24 -19 3 5 2 12 -2 16
-14 15 -7 61 12 79 26 23 35 8 37 -58 3 -108 1 -106 119 -137 58 -15 115 -27
127 -28 31 0 223 88 255 117 14 14 36 51 48 83 21 56 21 62 9 206 -7 82 -14
186 -14 230 -2 76 -5 85 -40 138 -46 69 -84 102 -98 84 -6 -9 -7 -8 -3 5 3 11
0 20 -9 23 -21 9 -44 59 -34 75 20 32 10 41 -33 35 -45 -6 -81 6 -63 22 6 5
31 15 58 22 48 13 56 24 35 52 -10 14 -21 15 -55 9 -42 -8 -63 0 -63 24 0 6
21 17 48 24 26 7 41 15 35 18 -7 3 -13 12 -13 20 0 11 -5 13 -17 8 -51 -21
-78 -21 -95 1 -20 24 -24 39 -8 29 5 -3 22 0 37 8 27 14 27 14 4 22 -12 4 -36
1 -52 -5 -29 -12 -31 -11 -79 40 -27 29 -48 56 -46 59 3 3 -2 15 -10 26 -8 10
-14 15 -14 11 0 -4 -16 6 -37 21 -30 23 -55 31 -152 45 -87 12 -118 13 -123 5
-5 -8 -8 -6 -8 4 0 30 -45 37 -95 14z m-368 -527 c-3 -8 -6 -5 -6 6 -1 11 2
17 5 13 3 -3 4 -12 1 -19z m-345 -38 c-2 -16 -8 -27 -13 -24 -13 8 -11 42 4
47 6 3 12 6 13 6 0 1 -1 -12 -4 -29z m1445 -2 c-3 -8 -6 -5 -6 6 -1 11 2 17 5
13 3 -3 4 -12 1 -19z m-1502 -28 c-4 -14 -12 -19 -22 -16 -11 4 -13 2 -9 -9 8
-22 -1 -19 -14 5 -9 16 -6 22 17 34 33 17 37 15 28 -14z m1553 -82 c-8 -12
-21 -24 -28 -26 -8 -3 -6 5 6 21 23 32 42 36 22 5z m13 -26 c-11 -22 -54 -54
-83 -65 -30 -11 -20 1 21 24 21 12 45 32 52 45 7 13 14 22 16 20 3 -2 0 -13
-6 -24z m-1067 -339 c7 -16 19 -55 25 -88 7 -33 15 -67 18 -75 3 -8 7 -46 9
-83 2 -38 9 -76 15 -85 7 -12 9 29 6 148 -2 91 -2 152 0 135 2 -16 8 -50 14
-75 6 -25 11 -128 10 -230 -1 -102 3 -231 9 -288 5 -57 12 -169 15 -250 4 -81
8 -154 11 -164 6 -20 -16 -111 -25 -103 -3 4 -7 48 -7 98 -2 107 -15 261 -37
437 -9 69 -26 213 -38 320 -12 107 -30 221 -40 253 -17 50 -18 77 -4 77 3 0
11 -12 19 -27z m231 -43 c-6 12 -5 13 6 3 7 -7 24 -13 37 -13 13 0 20 -4 17
-10 -4 -6 -11 -8 -16 -5 -5 3 -6 -1 -3 -10 5 -13 1 -15 -22 -10 -64 15 -65 15
-53 36 9 17 13 18 27 7 13 -11 15 -11 7 2z m419 -95 c-7 -27 -42 -58 -56 -49
-4 3 -3 14 3 26 8 15 8 19 0 14 -6 -4 -11 0 -11 9 0 8 11 21 25 27 14 6 25 16
25 22 0 6 5 3 11 -6 5 -10 7 -29 3 -43z m-284 31 c0 -3 -4 -8 -10 -11 -5 -3
-10 -1 -10 4 0 6 5 11 10 11 6 0 10 -2 10 -4z m110 -27 c0 -6 8 -5 19 1 26 13
31 13 25 -4 -3 -8 -13 -16 -22 -19 -9 -3 -24 -8 -33 -11 -12 -5 -18 0 -21 18
-3 14 -3 28 -1 30 7 7 33 -5 33 -15z m82 -38 c-7 -4 -14 -18 -15 -30 -1 -12
-7 -19 -13 -17 -6 2 -16 0 -22 -6 -7 -7 -17 -3 -31 11 -24 24 -19 45 7 37 10
-3 24 -1 32 4 8 5 24 10 35 10 14 0 16 -3 7 -9z m-652 -1036 c-7 -9 -15 -13
-19 -10 -3 3 1 10 9 15 21 14 24 12 10 -5z m-20 -35 c0 -5 -5 -10 -11 -10 -5
0 -7 5 -4 10 3 6 8 10 11 10 2 0 4 -4 4 -10z m-25 -70 c3 -6 -1 -7 -9 -4 -18
7 -21 14 -7 14 6 0 13 -4 16 -10z m440 -540 c12 -10 -6 -33 -117 -151 -124
-130 -154 -156 -166 -144 -11 10 20 123 49 182 34 66 57 92 104 118 34 18 105
15 130 -5z"/>
<path d="M2863 2220 c0 -36 2 -50 4 -32 2 17 2 47 0 65 -2 17 -4 3 -4 -33z"/>
<path d="M2463 3320 c-81 -12 -64 -40 25 -40 44 0 52 3 52 19 0 23 -22 29 -77
21z"/>
<path d="M2700 3265 c-11 -13 -8 -15 20 -15 28 0 31 2 20 15 -7 8 -16 15 -20
15 -4 0 -13 -7 -20 -15z"/>
<path d="M2461 3035 c0 -5 6 -21 14 -35 8 -14 14 -20 14 -15 0 6 -6 21 -14 35
-8 14 -14 21 -14 15z"/>
<path d="M2635 2520 c-8 -13 4 -32 16 -25 12 8 12 35 0 35 -6 0 -13 -4 -16
-10z"/>
<path d="M3193 2325 c-3 -9 -3 -18 -1 -21 9 -9 38 8 38 22 0 19 -29 18 -37 -1z"/>
<path d="M3133 2217 c-26 -12 -31 -54 -8 -63 22 -9 44 13 41 42 -3 31 -7 33
-33 21z m12 -27 c-3 -5 -11 -10 -16 -10 -6 0 -7 5 -4 10 3 6 11 10 16 10 6 0
7 -4 4 -10z"/>
<path d="M2650 2051 c0 -6 5 -13 10 -16 6 -3 10 1 10 9 0 9 -4 16 -10 16 -5 0
-10 -4 -10 -9z"/>
<path d="M3794 2036 c11 -9 24 -16 30 -16 12 0 7 5 -24 19 -24 11 -24 11 -6
-3z"/>
<path d="M1698 1694 c-5 -4 -8 -17 -8 -28 0 -12 -7 -34 -15 -50 -12 -22 -13
-32 -4 -40 8 -8 10 -7 8 4 -1 8 6 32 15 53 17 38 19 77 4 61z"/>
<path d="M2666 1572 c-4 -7 -4 -16 -1 -22 10 -16 32 -12 39 6 8 21 -2 33 -13
15 -7 -11 -9 -11 -13 0 -3 10 -6 10 -12 1z"/>
<path d="M1855 1508 c-8 -13 -33 -50 -55 -83 -21 -33 -81 -103 -132 -155 -142
-146 -133 -131 -109 -178 11 -23 26 -44 32 -47 14 -9 56 31 178 170 98 111
207 253 199 260 -12 13 -80 55 -88 55 -5 0 -16 -10 -25 -22z"/>
<path d="M1970 1508 c0 -17 13 -38 25 -38 7 0 15 -9 18 -21 3 -12 10 -18 16
-14 6 3 12 0 12 -7 5 -45 7 -56 13 -67 5 -7 1 -9 -11 -4 -15 6 -16 4 -5 -9 11
-13 8 -15 -22 -11 -19 2 -40 -2 -48 -9 -7 -7 -20 -14 -28 -16 -8 -2 -18 -8
-23 -13 -4 -5 -4 -7 -1 -4 4 3 13 0 21 -7 10 -8 13 -8 10 3 -2 8 -2 11 0 6 3
-4 10 -4 16 -1 7 4 0 -5 -15 -20 -15 -15 -31 -27 -35 -29 -13 -4 -113 -108
-113 -118 0 -4 19 11 43 34 23 23 64 57 91 75 27 17 45 32 40 32 -5 0 15 13
45 29 30 16 65 38 77 50 25 25 39 27 30 6 -4 -12 -2 -13 14 -2 11 6 20 15 20
20 0 4 -4 6 -9 2 -5 -3 -13 0 -17 6 -4 8 -3 9 4 5 7 -4 12 -1 12 6 0 9 3 9 10
-2 8 -12 10 -12 10 5 0 16 3 15 15 -9 8 -15 12 -33 8 -40 -3 -6 -3 -8 2 -4 4
4 15 2 23 -5 13 -10 15 -9 9 8 -6 17 -5 18 6 5 16 -19 37 -24 37 -7 0 9 2 9 8
0 8 -12 47 -21 137 -29 33 -3 66 -7 74 -10 11 -3 11 -1 2 10 -31 37 -175 73
-209 52 -8 -5 -10 -2 -6 8 3 9 11 13 17 9 6 -4 8 0 4 10 -7 20 13 23 31 5 15
-15 25 -4 18 20 -8 22 -107 65 -117 50 -3 -5 -9 -2 -13 7 -3 9 -10 14 -15 10
-5 -3 -16 3 -23 12 -11 15 -29 18 -110 18 -54 0 -98 -3 -98 -7z"/>
<path d="M1709 1373 c-32 -39 -44 -57 -32 -50 13 8 57 67 50 67 -2 0 -10 -8
-18 -17z"/>
<path d="M2170 1370 c0 -5 5 -10 11 -10 5 0 7 5 4 10 -3 6 -8 10 -11 10 -2 0
-4 -4 -4 -10z"/>
<path d="M1636 1278 l-18 -33 21 25 c18 22 26 40 18 40 -1 0 -11 -15 -21 -32z"/>
<path d="M2496 1271 c-4 -5 -20 -12 -36 -16 -43 -10 -45 -22 -3 -18 39 3 73
26 55 37 -6 3 -13 2 -16 -3z"/>
<path d="M2180 1069 c-55 -34 -117 -87 -141 -122 l-22 -32 29 26 c16 14 52 42
79 61 45 33 105 88 94 88 -2 0 -20 -10 -39 -21z"/>
<path d="M1600 663 c0 -6 5 -15 10 -18 6 -4 9 -14 6 -23 -14 -45 92 -137 186
-162 24 -7 65 -18 92 -26 26 -8 52 -11 57 -8 11 7 50 -14 69 -37 8 -10 30 -20
48 -21 19 -1 36 -6 38 -10 3 -4 11 -8 19 -8 17 0 13 24 -8 48 -21 23 -24 118
-4 125 6 3 2 6 -10 6 -12 1 -25 5 -28 11 -3 5 -16 9 -28 8 -12 -1 -39 4 -59
11 -21 7 -47 10 -58 6 -14 -4 -20 -2 -18 7 2 7 -8 14 -22 16 -50 6 -66 12 -88
33 -31 28 -38 19 -11 -14 18 -24 19 -26 2 -20 -10 3 -31 15 -47 27 -27 18 -29
18 -23 2 7 -17 6 -18 -17 -2 -14 9 -32 13 -41 9 -11 -4 -25 4 -41 23 -13 16
-23 24 -24 17z m105 -116 c17 -8 66 -29 110 -46 44 -17 94 -40 110 -51 39 -26
26 -26 -18 0 -19 11 -66 31 -104 44 -39 13 -84 32 -99 42 -41 25 -84 66 -84
78 0 6 13 -3 28 -21 15 -17 41 -38 57 -46z m14 26 c2 -2 0 -3 -6 -3 -6 0 -21
9 -34 21 l-24 20 30 -17 c17 -10 32 -19 34 -21z m36 -21 c-3 -3 -11 0 -18 7
-9 10 -8 11 6 5 10 -3 15 -9 12 -12z m322 -58 c-2 -48 -27 -65 -64 -44 -22 13
-48 62 -38 72 2 2 26 4 53 6 l50 3 -1 -37z m-101 -42 c-5 -4 -66 26 -66 33 0
3 16 -3 35 -12 19 -9 33 -18 31 -21z"/>
<path d="M4900 550 c-11 -7 -6 -9 17 -7 18 1 33 5 33 10 0 10 -32 9 -50 -3z"/>
<path d="M2137 483 c-4 -3 -7 -13 -7 -21 0 -12 3 -12 15 -2 8 7 15 16 15 21 0
11 -14 12 -23 2z"/>
<path d="M2160 421 c0 -22 16 -36 24 -22 8 12 -3 41 -15 41 -5 0 -9 -9 -9 -19z"/>
<path d="M4600 360 c-8 -5 -10 -10 -5 -10 6 0 17 5 25 10 8 5 11 10 5 10 -5 0
-17 -5 -25 -10z"/>
<path d="M4394 338 c-5 -7 -3 -8 5 -4 7 5 22 0 34 -11 l22 -18 -19 23 c-21 25
-32 27 -42 10z"/>
<path d="M4558 343 c7 -3 16 -2 19 1 4 3 -2 6 -13 5 -11 0 -14 -3 -6 -6z"/>
<path d="M4460 306 c0 -2 8 -10 18 -17 15 -13 16 -12 3 4 -13 16 -21 21 -21
13z"/>
<path d="M4687 129 c7 -7 15 -10 18 -7 3 3 -2 9 -12 12 -14 6 -15 5 -6 -5z"/>
</g>
</svg>
